<svg width="374" height="394" viewBox="0 0 374 394" fill="none" xmlns="http://www.w3.org/2000/svg">
<rect x="0.340698" y="0.917603" width="346.024" height="47.7528" fill="#B9FFAB"/>
<path d="M0.340698 16.8352H48.1151V311.356C29.458 326.975 18.9978 335.731 0.340698 351.35V311.356V16.8352Z" fill="white"/>
<path d="M112.549 16.8352H160.324V311.356L112.549 351.35V311.356V16.8352Z" fill="white"/>
<path d="M223.41 16.8352H271.185V311.356L223.41 351.35V311.356V16.8352Z" fill="white"/>
<path d="M48.1279 176.134V110.102L112.854 46.5766L112.854 107.81L48.1279 176.134Z" fill="#00FF00"/>
<rect x="0.340698" y="0.917603" width="346.024" height="47.7528" fill="#B9FFAB"/>
<path d="M0.340698 16.8352H48.1151V311.356C29.458 326.975 18.9978 335.731 0.340698 351.35V311.356V16.8352Z" fill="white"/>
<path d="M112.549 16.8352H160.324V311.356L112.549 351.35V311.356V16.8352Z" fill="white"/>
<path d="M223.41 16.8352H271.185V311.356L223.41 351.35V311.356V16.8352Z" fill="white"/>
<path d="M48.1279 176.134V110.102L112.854 46.5766L112.854 107.81L48.1279 176.134Z" fill="#00FF00"/>
<path d="M48.0728 242.083L48.0728 176.052L112.798 252.735L112.798 315.671L48.0728 242.083Z" fill="#00FF00"/>
<path d="M160.522 175.841V109.81L225.248 186.494L225.248 249.43L160.522 175.841Z" fill="#00FF00"/>
<path d="M271.333 174.827L271.333 108.796L336.059 185.48L336.059 248.416L271.333 174.827Z" fill="#00FF00"/>
</svg>
